#!OML:ASF F:\VICON\USERDATA\INSTALL\rory3\rory3.ASF
:FULLY-SPECIFIED
:DEGREES
270
root 4.84014 17.105 2.56899 12.711 -10.2392 -7.72453
lowerback 3.90159 -1.31298 4.20949
upperback -2.25458 -1.4181 2.26316
thorax -4.57123 -0.798344 0.0951955
lowerneck -11.0818 0.90433 -1.70117
upperneck 40.806 1.44905 0.317489
head 16.5271 0.267595 0.656111
rclavicle 2.52953e-014 1.07344e-014
rhumerus -14.5869 5.22969 -16.9281
rradius 99.2657
rwrist -38.4111
rhand -3.98318 -41.2385
rfingers 7.12502
rthumb 21.7701 -70.0341
lclavicle 2.52953e-014 1.07344e-014
lhumerus 10.668 13.9205 1.65124
lradius 33.6291
lwrist 31.9092
lhand -24.3085 -20.4562
lfingers 7.12502
lthumb 2.17946 9.51241
rfemur -53.8802 2.45817 12.7809
rtibia 90.2732
rfoot 32.3326 -2.49527
rtoes -7.22978
lfemur -30.6985 0.278957 -21.3995
ltibia 39.6299
lfoot -18.6723 10.6401
ltoes 15.1344
271
root 4.84259 17.0976 2.55961 12.7108 -10.3914 -7.68946
lowerback 4.00789 -1.27595 4.17523
upperback -2.15072 -1.36812 2.26647
thorax -4.52062 -0.770613 0.114124
lowerneck -11.2148 0.86381 -1.88216
upperneck 40.8041 1.4104 0.399652
head 16.5575 0.234694 0.72005
rclavicle -2.60408e-014 4.65156e-014
rhumerus -14.8788 5.19475 -17.3694
rradius 98.7832
rwrist -38.2352
rhand -3.74792 -40.8276
rfingers 7.12502
rthumb 21.996 -69.5969
lclavicle -2.60408e-014 4.65156e-014
lhumerus 10.1905 13.4936 1.77819
lradius 33.7376
lwrist 32.0868
lhand -24.3809 -20.9584
lfingers 7.12502
lthumb 2.1095 9.01096
rfemur -54.9862 2.55853 12.9904
rtibia 91.4103
rfoot 33.1532 -2.20435
rtoes -7.16108
lfemur -30.7455 0.368741 -21.4582
ltibia 39.6265
lfoot -18.5555 10.6832
ltoes 15.1889
272
root 4.84591 17.098 2.55313 12.6948 -10.5483 -7.59671
lowerback 3.99809 -1.22338 4.12836
upperback -1.88408 -1.31413 2.20817
thorax -4.23543 -0.736769 0.0697862
lowerneck -11.7705 0.819945 -1.81902
upperneck 40.9208 1.39899 0.265571
head 16.7656 0.218935 0.652724
rclavicle -4.90004e-014 2.5842e-014
rhumerus -14.7985 4.52516 -18.0985
rradius 97.9342
rwrist -37.8544
rhand -3.65029 -41.2654
rfingers 7.12502
rthumb 22.0897 -70.0237
lclavicle -4.90004e-014 2.5842e-014
lhumerus 9.74635 13.3096 1.8479
lradius 33.878
lwrist 32.3044
lhand -24.2071 -21.4502
lfingers 7.12502
lthumb 2.27736 8.51744
rfemur -56.0768 2.59335 13.1339
rtibia 92.51
rfoot 34.1746 -2.01487
rtoes -6.49527
lfemur -30.7604 0.487641 -21.5958
ltibia 39.6187
lfoot -18.5169 10.6685
ltoes 14.9727
273
root 4.84759 17.1003 2.54042 12.6855 -10.629 -7.44661
lowerback 4.1673 -1.21408 3.96387
upperback -1.812 -1.30449 2.19369
thorax -4.25205 -0.727019 0.148385
lowerneck -11.8921 0.858186 -1.70449
upperneck 41.0025 1.52688 0.023579
head 16.8454 0.254718 0.54688
rclavicle 2.98177e-014 -1.98785e-014
rhumerus -14.9307 4.49928 -18.6164
rradius 97.2977
rwrist -37.6297
rhand -4.05012 -41.9938
rfingers 7.12502
rthumb 21.7058 -70.7969
lclavicle 2.98177e-014 -1.98785e-014
lhumerus 9.28689 13.1583 2.10672
lradius 33.9673
lwrist 32.2314
lhand -23.7966 -21.547
lfingers 7.12502
lthumb 2.6738 8.41595
rfemur -57.1596 2.56105 13.2575
rtibia 93.6022
rfoot 34.7351 -1.69982
rtoes -7.91174
lfemur -30.8038 0.566878 -21.776
ltibia 39.5673
lfoot -18.3719 10.6865
ltoes 14.444
274
root 4.85006 17.0988 2.52875 12.6874 -10.719 -7.33152
lowerback 4.40545 -1.22533 3.83086
upperback -1.8574 -1.31129 2.21092
thorax -4.43081 -0.728854 0.247645
lowerneck -11.7947 0.917316 -1.69449
upperneck 41.0514 1.65991 -0.0974239
head 16.8486 0.293381 0.512747
rclavicle -7.15625e-015 -5.60573e-014
rhumerus -15.4764 5.08882 -18.8502
rradius 97.0498
rwrist -37.7314
rhand -4.3775 -42.0557
rfingers 7.12502
rthumb 21.3914 -70.8949
lclavicle -7.15625e-015 -5.60573e-014
lhumerus 8.83849 12.8622 2.40888
lradius 33.9592
lwrist 32.0985
lhand -23.3271 -21.444
lfingers 7.12502
lthumb 3.12719 8.51281
rfemur -58.2213 2.57546 13.4165
rtibia 94.682
rfoot 35.4608 -0.964243
rtoes -8.36953
lfemur -30.8408 0.65553 -21.9274
ltibia 39.5186
lfoot -18.2231 10.7171
ltoes 14.3243
275
root 4.85759 17.1035 2.52912 12.6301 -10.7662 -7.35322
lowerback 4.46375 -1.24501 3.99238
upperback -1.70024 -1.33135 2.18157
thorax -4.30556 -0.740654 0.12713
lowerneck -11.8876 0.931777 -1.68436
upperneck 40.9757 1.68135 -0.0992914
head 16.83 0.304379 0.514147
rclavicle -2.83765e-014 -7.55382e-015
rhumerus -15.8902 5.20127 -19.276
rradius 96.659
rwrist -37.695
rhand -4.68131 -42.4176
rfingers 7.12502
rthumb 21.0996 -71.2896
lclavicle -2.83765e-014 -7.55382e-015
lhumerus 8.42763 12.5502 2.53643
lradius 33.9961
lwrist 32.201
lhand -23.5899 -21.2541
lfingers 7.12502
lthumb 2.87337 8.70627
rfemur -59.0841 2.58177 13.6902
rtibia 95.662
rfoot 36.1129 -0.594577
rtoes -8.16843
lfemur -30.7285 0.722667 -21.9552
ltibia 39.4996
lfoot -18.2608 10.7061
ltoes 14.7183
